Walking06_kinetics.mot
version=1
nRows=20
nColumns=19
inDegrees=yes
endheader
time	1_ground_force_vx	1_ground_force_vy	1_ground_force_vz	1_ground_force_px	1_ground_force_py	1_ground_force_pz	2_ground_force_vx	2_ground_force_vy	2_ground_force_vz	2_ground_force_px	2_ground_force_py	2_ground_force_pz	1_ground_torque_x	1_ground_torque_y	1_ground_torque_z	2_ground_torque_x	2_ground_torque_y	2_ground_torque_z
  0.00000000	  0.00000000	  0.00000000	  0.00000000	  0.30048871	 -0.00042294	 -0.20058549	-14.48505960	 97.42799906	 -4.15614315	 -0.47158385	  0.00269550	 -0.06280151	  0.00000000	  0.00000000	  0.00000000	 -0.00008256	 -0.06335326	 -0.00000209
  0.00100000	  0.00000000	  0.00000000	  0.00000000	  0.30048871	 -0.00042294	 -0.20058549	-21.13033853	159.09976249	 -4.21490090	 -0.46486912	  0.00268656	 -0.05715699	  0.00000000	  0.00000000	  0.00000000	 -0.00000698	 -0.00535703	 -0.00000018
  0.00200000	  0.00000000	  0.00000000	  0.00000000	  0.30048871	 -0.00042294	 -0.20058549	-27.83037550	217.66139003	 -4.09417159	 -0.45845611	  0.00267802	 -0.05183888	  0.00000000	  0.00000000	  0.00000000	  0.00006328	  0.04855864	  0.00000160
  0.00300000	  0.00000000	  0.00000000	  0.00000000	  0.30048871	 -0.00042294	 -0.20058549	-34.46798153	270.91758668	 -3.72132780	 -0.45258413	  0.00267022	 -0.04706917	  0.00000000	  0.00000000	  0.00000000	  0.00012573	  0.09647783	  0.00000319
  0.00400000	  0.00000000	  0.00000000	  0.00000000	  0.30048871	 -0.00042294	 -0.20058549	-40.96012134	317.08284675	 -3.06390570	 -0.44743977	  0.00266338	 -0.04302337	  0.00000000	  0.00000000	  0.00000000	  0.00017684	  0.13570077	  0.00000448
  0.00500000	  0.00000000	  0.00000000	  0.00000000	  0.30048871	 -0.00042294	 -0.20058549	-47.26140980	354.99004167	 -2.13243134	 -0.44313082	  0.00265766	 -0.03980458	  0.00000000	  0.00000000	  0.00000000	  0.00021306	  0.16349340	  0.00000540
  0.00600000	  0.00000000	  0.00000000	  0.00000000	  0.30048871	 -0.00042294	 -0.20058549	-53.36020496	384.26781625	 -0.96986519	 -0.43966586	  0.00265306	 -0.03742089	  0.00000000	  0.00000000	  0.00000000	  0.00023257	  0.17845950	  0.00000590
  0.00700000	  0.00000000	  0.00000000	  0.00000000	  0.30048871	 -0.00042294	 -0.20058549	-59.26995711	405.36240352	  0.36262528	 -0.43696098	  0.00264948	 -0.03578888	  0.00000000	  0.00000000	  0.00000000	  0.00023611	  0.18117845	  0.00000599
  0.00800000	  0.00000000	  0.00000000	  0.00000000	  0.30048871	 -0.00042294	 -0.20058549	-65.01824748	419.32929645	  1.79627449	 -0.43488490	  0.00264674	 -0.03477500	  0.00000000	  0.00000000	  0.00000000	  0.00022584	  0.17329415	  0.00000573
  0.00900000	  0.00000000	  0.00000000	  0.00000000	  0.30048871	 -0.00042294	 -0.20058549	-70.63626570	427.52841597	  3.26180213	 -0.43331221	  0.00264468	 -0.03424628	  0.00000000	  0.00000000	  0.00000000	  0.00020355	  0.15619011	  0.00000516
  0.01000000	  0.00000000	  0.00000000	  0.00000000	  0.30048871	 -0.00042294	 -0.20058549	-76.15136569	431.40734630	  4.69533899	 -0.43214353	  0.00264315	 -0.03409101	  0.00000000	  0.00000000	  0.00000000	  0.00017063	  0.13092953	  0.00000433
  0.01100000	  0.00000000	  0.00000000	  0.00000000	  0.30048871	 -0.00042294	 -0.20058549	-81.58279378	432.40149003	  6.04356297	 -0.43129056	  0.00264204	 -0.03420706	  0.00000000	  0.00000000	  0.00000000	  0.00012959	  0.09944115	  0.00000329
  0.01200000	  0.00000000	  0.00000000	  0.00000000	  0.30048871	 -0.00042294	 -0.20058549	-86.93846925	431.86305397	  7.26628279	 -0.43065997	  0.00264123	 -0.03448919	  0.00000000	  0.00000000	  0.00000000	  0.00008500	  0.06522527	  0.00000216
  0.01300000	  0.00000000	  0.00000000	  0.00000000	  0.30048871	 -0.00042294	 -0.20058549	-92.21148500	430.95758045	  8.33539023	 -0.43016017	  0.00264059	 -0.03483730	  0.00000000	  0.00000000	  0.00000000	  0.00004223	  0.03240790	  0.00000107
  0.01400000	  0.00000000	  0.00000000	  0.00000000	  0.30048871	 -0.00042294	 -0.20058549	-97.37751278	430.55925083	  9.23196533	 -0.42971991	  0.00264003	 -0.03517509	  0.00000000	  0.00000000	  0.00000000	  0.00000517	  0.00396336	  0.00000013
  0.01500000	  0.00000000	  0.00000000	  0.00000000	  0.30048871	 -0.00042294	 -0.20058549	-102.39513210	431.20431202	  9.94398964	 -0.42929767	  0.00263948	 -0.03545950	  0.00000000	  0.00000000	  0.00000000	 -0.00002543	 -0.01951709	 -0.00000064
  0.01600000	  0.00000000	  0.00000000	  0.00000000	  0.30048871	 -0.00042294	 -0.20058549	-107.20916323	433.11277500	 10.46520977	 -0.42887750	  0.00263894	 -0.03567632	  0.00000000	  0.00000000	  0.00000000	 -0.00005214	 -0.04001147	 -0.00000132
  0.01700000	  0.00000000	  0.00000000	  0.00000000	  0.30048871	 -0.00042294	 -0.20058549	-111.75505821	436.25557770	 10.79419943	 -0.42845804	  0.00263840	 -0.03582869	  0.00000000	  0.00000000	  0.00000000	 -0.00007958	 -0.06106539	 -0.00000202
  0.01800000	  0.00000000	  0.00000000	  0.00000000	  0.30048871	 -0.00042294	 -0.20058549	-115.96291414	440.44483603	 10.93307782	 -0.42804129	  0.00263786	 -0.03592428	  0.00000000	  0.00000000	  0.00000000	 -0.00011177	 -0.08576596	 -0.00000283
  0.01900000	  0.00000000	  0.00000000	  0.00000000	  0.30048871	 -0.00042294	 -0.20058549	-119.76131566	445.41706709	 10.88695959	 -0.42762583	  0.00263732	 -0.03596709	  0.00000000	  0.00000000	  0.00000000	 -0.00014987	 -0.11500089	 -0.00000380
